<svg id="Livello_1" data-name="Livello 1" xmlns="http://www.w3.org/2000/svg" viewBox="0 0 998.82 999.48"><defs><style>.cls-1{fill:#2ec4f3;}</style></defs><path class="cls-1" d="M1000.66,504.1c2.15,277.14-214.14,496.1-496.09,497.42-285.8,1.33-500.93-217-502.7-493.3C.15,240.45,216.28,2.6,500.48,2,785.47,1.49,1002.27,239.88,1000.66,504.1ZM316.2,708c-16.07.77-29.31.27-42.14,2.31C257.2,713,248.29,723.36,257.12,740a253.76,253.76,0,0,0,30.25,45.2c13.63,16,31.47,18,49.55,6.5C358,778.3,379.11,765,399.06,750c4.19-3.12,6.67-14.33,4.44-19.39-25.9-58.8-45.32-119.25-50.1-183.72-5.23-70.5,7.92-134.38,66.72-181.4,40.08-32,84.41-40.58,131.75-20,48.33,21,81.77,56.07,90.49,110.06,11.14,69-2.47,135.85-20.59,201.92-7.89,28.75-18,56.89-27.71,87.17,23.12,15.28,45.26,31,68.42,44.94,24.53,14.81,39.81,12.7,58.23-8.72A148.53,148.53,0,0,0,744.82,742c8.69-20.73,2.08-30-20.58-32.36-11.91-1.25-23.94-1.35-37.74-2.06,15.07-23.6,29.14-44.16,41.7-65.6,31.43-53.64,59.74-109.87,58.39-173.12-2.14-101.23-58.13-190.16-155.3-231.46C578.7,215.09,523.84,210.72,467.42,215c-94.45,7.1-169,47.75-216.93,130.33-25.71,44.28-39.3,92.77-32.6,145.34,6.62,52,26.5,98.89,52.49,143.55C284.35,658.19,299.65,681.43,316.2,708Z" transform="translate(-1.86 -2.04)"/></svg>