<svg id="Livello_1" data-name="Livello 1" xmlns="http://www.w3.org/2000/svg" viewBox="0 0 994 994.48"><defs><style>.cls-1{fill:#ee322e;}</style></defs><path class="cls-1" d="M499.16,996.64C223.79,996.38,2.46,774.17,2.74,498.27,3,223.19,225.66,1.75,501.51,2.16,776.32,2.58,997.6,225.78,996.74,501.7,995.89,776.09,773.9,996.9,499.16,996.64ZM448.41,166.33c11.35,67.31-15,124.9-44.47,181.75C389.5,376,372,402.7,361.36,432c-17.64,48.4-40.84,97.79-44,147.88-7.08,113.13,73,224.56,224.34,202.76,82.43-11.88,125.7-56.78,138.37-138.26C694,554.6,675.71,469.8,637.73,388.82c-13.54-28.86-31-55.88-46.6-83.62-15,39.26-28.39,74.58-41.84,109.89l-6.1-1.26C548.14,317.48,505.75,239.4,448.41,166.33Z" transform="translate(-2.74 -2.16)"/></svg>